<?xml version="1.0" encoding="UTF-8"?>
<svg id="sonos_favicon" data-name="Layer 1" xmlns="http://www.w3.org/2000/svg" viewBox="0 0 100 100" fill="none">
  <path d="M50,0h0c27.61,0,50,22.39,50,50h0c0,27.61-22.39,50-50,50h0C22.39,100,0,77.61,0,50H0C0,22.39,22.39,0,50,0Z" fill="#000000"/>
  <path d="M53.75,42.26h3.12v16.69l-10.53-9.8v9.29h-3.12v-16.64l10.53,9.82v-9.35Zm-15.47,8.07c0,4.82-3.92,8.73-8.73,8.73s-8.73-3.92-8.73-8.73,3.92-8.74,8.73-8.74,8.73,3.92,8.73,8.74Zm-3.19,0c0-3.09-2.48-5.6-5.54-5.6s-5.54,2.51-5.54,5.6,2.48,5.6,5.54,5.6,5.54-2.51,5.54-5.6Zm-19.58,.14c-.83-.63-1.92-1.14-3.54-1.66-3.16-1.01-3.16-1.8-3.16-2.19,0-.9,1-1.83,2.68-1.83,1.41,0,2.51,.71,2.92,1.01l.22,.16,2.51-1.7-.27-.33c-.08-.1-2.02-2.35-5.38-2.35-1.62,0-3.1,.52-4.19,1.46-1.08,.94-1.7,2.24-1.7,3.58,0,1.43,.63,2.64,1.86,3.58,.83,.63,1.92,1.14,3.54,1.66,3.16,1.01,3.16,1.8,3.16,2.19,0,.9-1,1.83-2.68,1.83-1.42,0-2.51-.71-2.92-1.01l-.22-.16-2.52,1.7,.28,.33c.08,.09,2.01,2.35,5.38,2.35,1.62,0,3.1-.52,4.19-1.46,1.08-.94,1.7-2.24,1.7-3.58,0-1.43-.63-2.64-1.86-3.58Zm63.76-.08c0,4.82-3.92,8.73-8.73,8.73s-8.73-3.92-8.73-8.73,3.92-8.74,8.73-8.74,8.73,3.92,8.73,8.74Zm-3.2,0c0-3.08-2.48-5.6-5.54-5.6s-5.54,2.51-5.54,5.6,2.48,5.6,5.54,5.6,5.54-2.51,5.54-5.6Zm16.55,.12c-.83-.63-1.92-1.14-3.54-1.66-3.16-1.01-3.16-1.8-3.16-2.19,0-.9,1-1.83,2.68-1.83,1.42,0,2.51,.71,2.92,1.01l.22,.16,2.51-1.7-.27-.33c-.08-.09-2.01-2.35-5.38-2.35-1.62,0-3.1,.52-4.19,1.46-1.08,.94-1.7,2.24-1.7,3.58,0,1.43,.62,2.64,1.86,3.58,.83,.63,1.92,1.14,3.54,1.66,3.16,1,3.16,1.8,3.16,2.18,0,.9-1,1.83-2.68,1.83-1.41,0-2.51-.71-2.92-1.01l-.22-.16-2.51,1.7,.27,.33c.08,.1,2.01,2.35,5.38,2.35,1.62,0,3.1-.52,4.19-1.46,1.08-.94,1.7-2.24,1.7-3.58,0-1.43-.63-2.64-1.86-3.58Z" fill="#ffffff" fill-rule="evenodd"/>
</svg>